<svg id="Graphic_element" data-name="Graphic element" xmlns="http://www.w3.org/2000/svg" viewBox="0 0 1200 1200"><path d="M776,485.31c-19.45-23.46-46-43.13-79.49-42.11-12.53-.4-24.79-9.16-32.88-17.78-10.05-12.87-22.24-23.71-34.38-36.65C606.86,369.24,580,360,550.86,354.9c-18.73-2.69-37.6-1.2-56.53,2.38-67.44,16.66-130.64,31.36-192.42,67-34.87,20.12-73.29,43-99.65,73.59-21.25,24.65-35,61.21-71.49,65.06-24.66,2.61-50.3-10-63.28-31.13-17.23-28.05-10.76-66.09,8.64-92.68s49.36-43.5,79.88-55.83,62.56-20.94,92.17-35.33c22.45-10.9,46.11-30.94,42-55.56C286.76,271.81,260.27,259,242,269" style="fill:none;stroke:#000;stroke-miterlimit:10;stroke-width:6px"/><path d="M783.21,494c-10.77-6.53-10.3-21.15-12.05-31.66-3.11-33.56,8.4-66.65,11.56-100A15.91,15.91,0,0,1,787.23,352c6.53-8.16,14.56,2.56,18.6,6.87L818,371.81c6.07,6.47,10,12.87,16,21.42,6.07,6.47,16.25,15.16,26.82,11.32,17-7.82,33.83-11.47,50.6-13,29.31-1.16,58.56-.22,87.67,4.89,18.66,4.78,35.24,9.49,54,12.18q6.27.21,12.73-5.86c10.78-10.11,23.52-16,34.23-24,6.46-6.06,19.46-20.28,23.31-9.71,9.84,19.14,11.33,38,14.84,59,1.55,16.78-5.25,33.29-10,49.87-.2,6.26-2.49,12.46-.54,16.71,9.65,25.4,17.13,52.82,14.18,79.91-3.78,21.5-10.14,43.56-21.07,62.58-6.75,11.75-29,22.24-32.45,32.61-3.87,11.51,13.67,28.25,16,40,2.59,13.34-.57,25.79,3.62,39.71,8.78,29.24,21.88,50.83,7.36,81.31-11.53,24.2-33,42.64-56.74,55-8.52,4.44-17.47,8.22-26.89,10.16-37,7.62-62.44-20.44-96.77-17-29.16,2.89-22.42,26.44-39.48,41.8-17.86,16.06-44.88,17.19-66,7.6-24.73-11.25-51.55-22.56-80.93-19.32-88.3,9.74-199.42-7.81-252.55-88.29-37-56-34.69-137.7,12-185.83,5.55-5.72,11.88-11.08,19.51-13.37,15.91-4.79,32.65,4.91,44.37,16.68,33.12,33.22,43.74,85.1,32.5,130.64s-42.19,84.65-80.32,112c-53.37,38.25-119.6,55.31-184.87,50.41-60.4-4.52-129.35-27.76-174.14-70C102.15,802,85.65,686.79,132.2,613" style="fill:none;stroke:#000;stroke-miterlimit:10;stroke-width:6px"/><path d="M1005.15,711c-27.28,15.94-59.75,32.37-89,20.36-16.95-7-28.8-22.2-42.83-34C853.21,680.44,828,670.29,808.17,653c-36.58-31.82-49.79-87.76-31.3-132.58,2.61-6.33,7.42-12.81,7-20s-7.41-15.2-10.9-21.35" style="fill:none;stroke:#000;stroke-miterlimit:10;stroke-width:6px"/></svg>